<svg width="15" height="14" viewBox="0 0 15 14" fill="none" xmlns="http://www.w3.org/2000/svg">
  <path
    d="M0.5 0H5.68C6.86029 0.00175373 7.81674 1.15915 7.81819 2.5873V12.8849H7.18183V12.8726C7.18151 12.3739 7.01425 11.9225 6.74403 11.5959V11.5958C6.47175 11.2656 6.09584 11.0605 5.68036 11.0583H0.500027L0.5 0ZM7.18181 11.0337V2.58746C7.18072 1.58426 6.50899 0.77136 5.6801 0.77007H1.13634V10.2882H5.68C6.26512 10.2902 6.79508 10.5743 7.18213 11.034L7.1818 11.0336L7.18181 11.0337ZM9.32 0H14.5V11.0583H9.32C8.90451 11.0597 8.52859 11.2636 8.25597 11.5928L8.256 11.5928C7.98576 11.9194 7.8185 12.3708 7.81819 12.8695V12.8834H7.18183V2.58751C7.18328 1.15922 8.13971 0.00180334 9.31988 4.96066e-05H9.32001L9.32 0ZM13.8636 0.77007H9.32C8.49101 0.77136 7.81927 1.58423 7.81819 2.58733V11.0337C8.20491 10.5743 8.73488 10.2902 9.31968 10.2882H13.8636V0.77007ZM14.5 14H0.5V10.6733H1.13636V13.2299H13.8636V10.6733H14.5L14.5 14Z"
    fill="black" />
</svg>