<svg width="15" height="14" viewBox="0 0 15 14" fill="none" xmlns="http://www.w3.org/2000/svg">
  <path
    d="M0.5 0.87109H14.5V4.47999H0.5V0.87109ZM13.8636 1.49332H1.13637V3.85776H13.8636V1.49332ZM11.4455 2.36442H10.8091V0H11.4455V2.36442ZM4.19092 2.36442H3.55455V0H4.19092V2.36442ZM0.5 3.85779H14.5V14H0.5V3.85779ZM13.8636 4.48002H1.13637V13.3778H13.8636V4.48002ZM6.86362 6.84445H5.65455V6.2222H6.86362V6.84445ZM9.34545 6.84445H8.13638V6.2222H9.34545V6.84445ZM11.7636 6.84445H10.5546V6.2222H11.7636V6.84445ZM6.86363 9.20887H5.65456V8.58665H6.86363V9.20887ZM4.44546 9.20887H3.23639V8.58665H4.44546V9.20887ZM9.34545 9.20887H8.13638V8.58665H9.34545V9.20887ZM11.7636 9.20887H10.5546V8.58665H11.7636V9.20887ZM6.86363 11.6355H5.65456V11.0133H6.86363V11.6355ZM4.44546 11.6355H3.23639V11.0133H4.44546V11.6355ZM9.34545 11.6355H8.13638V11.0133H9.34545V11.6355Z"
    fill="black" />
</svg>