<svg width="15" height="14" viewBox="0 0 15 14" fill="none" xmlns="http://www.w3.org/2000/svg">
  <path
    d="M14.1771 5.69471L7.97119 0.266749C7.76944 0.0902902 7.50377 -0.00520677 7.22969 0.000219177C6.95561 0.00564513 6.69434 0.111574 6.5005 0.295865L0.792906 5.72213L0.5 6.00057V14H6V9.0088H9V14H14.5V5.97718L14.1771 5.69471ZM7.25119 0.950722C7.26 0.950722 7.25456 0.952534 7.25078 0.956069C7.24687 0.952534 7.24237 0.950722 7.25119 0.950722ZM13.5 13.0493H10V9.0088C10 8.75666 9.89464 8.51484 9.70711 8.33655C9.51957 8.15826 9.26522 8.0581 9 8.0581H6C5.73478 8.0581 5.48043 8.15826 5.29289 8.33655C5.10536 8.51484 5 8.75666 5 9.0088V13.0493H1.5V6.39437L7.25119 0.968102C7.25159 0.967745 7.25163 0.967418 7.25194 0.967062L13.5 6.39437V13.0493Z"
    fill="black" />
</svg>